<svg id="Capa_1" enable-background="new 0 0 513 513" height="512" viewBox="0 0 513 513" width="512" xmlns="http://www.w3.org/2000/svg"><g id="XMLID_1800_"><g id="XMLID_572_"><path id="XMLID_682_" d="m10 351.689h101.002c43.834 0 79.496-35.661 79.496-79.495s-35.662-79.495-79.496-79.495c-15.959 0-30.833 4.727-43.299 12.854 17.952-34.948 49.603-62.387 88.726-73.971 5.295-1.568 8.317-7.133 6.749-12.428-1.568-5.296-7.131-8.319-12.428-6.75-33.745 9.992-64.1 31.02-85.472 59.208-22.094 29.14-33.771 63.921-33.771 100.582 0 5.522 4.477 10 10 10s10-4.478 10-10c0-32.806 26.689-59.495 59.495-59.495s59.496 26.689 59.496 59.495-26.689 59.495-59.496 59.495h-101.002c-5.523 0-10 4.478-10 10s4.477 10 10 10z"/><path id="XMLID_685_" d="m371.583 157.265c-16.073 0-31.522 2.715-45.921 7.698-20.941-24.833-49.135-43.375-80.141-52.557-5.294-1.565-10.859 1.453-12.428 6.75-1.568 5.295 1.454 10.859 6.749 12.428 25.356 7.508 48.571 22.147 66.523 41.731-44.875 23.56-75.559 70.624-75.559 124.727 0 5.522 4.477 10 10 10s10-4.478 10-10c0-26.481 21.544-48.026 48.026-48.026s48.026 21.545 48.026 48.027c0 26.481-21.544 48.026-48.026 48.026h-93.523c-5.523 0-10 4.478-10 10s4.477 10 10 10h93.523c37.51 0 68.026-30.517 68.026-68.027s-30.517-68.026-68.026-68.026c-11.578 0-22.491 2.908-32.045 8.031 20.857-36.292 60.019-60.781 104.795-60.781 66.597 0 120.777 54.18 120.777 120.776 0 5.522 4.477 10 10 10s10-4.478 10-10c.001-77.625-63.151-140.777-140.776-140.777z"/><path id="XMLID_686_" d="m508.505 472.236c-4.196-3.594-10.508-3.105-14.1 1.09-10.437 12.186-25.602 19.174-41.605 19.174s-31.167-6.989-41.605-19.175c-1.9-2.218-4.674-3.494-7.595-3.494s-5.695 1.276-7.595 3.494c-10.437 12.186-25.602 19.175-41.605 19.175s-31.167-6.988-41.605-19.174c-1.9-2.219-4.674-3.495-7.595-3.495s-5.695 1.276-7.595 3.494c-10.437 12.186-25.602 19.175-41.605 19.175s-31.168-6.989-41.605-19.175c-1.9-2.218-4.674-3.494-7.595-3.494s-5.695 1.276-7.595 3.495c-10.437 12.186-25.601 19.174-41.605 19.174-16.003 0-31.168-6.989-41.605-19.175-1.9-2.218-4.674-3.494-7.595-3.494s-5.695 1.276-7.595 3.495c-10.437 12.186-25.602 19.174-41.605 19.174s-31.167-6.988-41.605-19.174c-3.592-4.194-9.906-4.684-14.1-1.09-4.194 3.593-4.682 9.905-1.089 14.1 14.241 16.628 34.942 26.164 56.794 26.164 18.229 0 35.655-6.635 49.2-18.487 13.546 11.853 30.972 18.487 49.2 18.487s35.654-6.635 49.2-18.487c13.546 11.853 30.972 18.487 49.2 18.487s35.654-6.635 49.2-18.487c13.545 11.853 30.972 18.487 49.2 18.487s35.654-6.635 49.2-18.487c13.545 11.853 30.972 18.487 49.2 18.487 21.852 0 42.553-9.536 56.794-26.164 3.594-4.194 3.106-10.507-1.089-14.1z"/><path id="XMLID_687_" d="m508.505 396.569c-4.195-3.593-10.508-3.105-14.1 1.09-10.438 12.186-25.602 19.174-41.605 19.174s-31.167-6.989-41.605-19.175c-1.9-2.218-4.674-3.494-7.595-3.494s-5.695 1.276-7.595 3.494c-10.438 12.186-25.603 19.175-41.605 19.175-16.003 0-31.167-6.988-41.605-19.174-1.9-2.219-4.674-3.495-7.595-3.495s-5.695 1.276-7.595 3.494c-10.438 12.186-25.603 19.175-41.605 19.175s-31.168-6.989-41.605-19.175c-1.9-2.218-4.674-3.494-7.595-3.494s-5.695 1.276-7.595 3.495c-10.438 12.186-25.602 19.174-41.605 19.174s-31.168-6.989-41.605-19.175c-1.9-2.218-4.674-3.494-7.595-3.494s-5.695 1.276-7.595 3.495c-10.438 12.186-25.602 19.174-41.605 19.174s-31.167-6.988-41.605-19.174c-3.593-4.194-9.905-4.683-14.1-1.09-4.194 3.593-4.682 9.905-1.089 14.1 14.242 16.628 34.943 26.164 56.794 26.164 18.229 0 35.655-6.635 49.2-18.487 13.546 11.853 30.972 18.487 49.2 18.487s35.654-6.635 49.2-18.487c13.546 11.853 30.972 18.487 49.2 18.487s35.654-6.635 49.2-18.487c13.545 11.853 30.972 18.487 49.2 18.487s35.654-6.635 49.2-18.487c13.545 11.853 30.972 18.487 49.2 18.487 21.852 0 42.553-9.536 56.794-26.164 3.594-4.194 3.106-10.507-1.089-14.1z"/><path id="XMLID_690_" d="m446.5 133.5c36.668 0 66.5-29.832 66.5-66.5s-29.831-66.5-66.5-66.5-66.5 29.832-66.5 66.5 29.832 66.5 66.5 66.5zm0-113c25.64 0 46.5 20.859 46.5 46.5s-20.86 46.5-46.5 46.5-46.5-20.859-46.5-46.5 20.86-46.5 46.5-46.5z"/><path id="XMLID_691_" d="m198.13 125.569c2.63 0 5.21-1.069 7.07-2.93 1.86-1.859 2.93-4.439 2.93-7.07 0-2.63-1.07-5.21-2.93-7.069-1.86-1.86-4.44-2.931-7.07-2.931s-5.21 1.07-7.07 2.931c-1.86 1.859-2.93 4.439-2.93 7.069 0 2.631 1.07 5.211 2.93 7.07 1.86 1.861 4.44 2.93 7.07 2.93z"/></g></g></svg>