<?xml version="1.0" encoding="utf-8"?>
<!-- Svg Vector Icons : http://www.onlinewebfonts.com/icon -->
<!DOCTYPE svg PUBLIC "-//W3C//DTD SVG 1.1//EN" "http://www.w3.org/Graphics/SVG/1.1/DTD/svg11.dtd">
<svg version="1.1" xmlns="http://www.w3.org/2000/svg" xmlns:xlink="http://www.w3.org/1999/xlink" x="0px" y="0px" viewBox="0 0 1000 1000" enable-background="new 0 0 1000 1000" xml:space="preserve">
<metadata> Svg Vector Icons : http://www.onlinewebfonts.com/icon </metadata>
<g><g><path d="M876.2,990c5.9,0,10.6-4.8,10.6-10.8V20.8c0-6-4.7-10.8-10.6-10.8H123.8c-5.9,0-10.6,4.8-10.6,10.8v958.3c0,6,4.7,10.8,10.6,10.8H876.2z M216.3,164.7h567.4v51.6H216.3V164.7z M216.3,319.5h567.4v51.6H216.3V319.5z M216.3,474.2h567.4v51.6H216.3V474.2z M216.3,628.9h567.4v51.6H216.3V628.9z M216.3,783.7h361.1v51.6H216.3V783.7z"/></g><g></g><g></g><g></g><g></g><g></g><g></g><g></g><g></g><g></g><g></g><g></g><g></g><g></g><g></g><g></g></g>
</svg>